<?xml version="1.0" encoding="iso-8859-1"?>
<!-- Uploaded to: SVG Repo, www.svgrepo.com, Generator: SVG Repo Mixer Tools -->
<svg height="30px" width="30px" version="1.1" id="Layer_1" xmlns="http://www.w3.org/2000/svg" xmlns:xlink="http://www.w3.org/1999/xlink" 
	 viewBox="0 0 511.985 511.985" xml:space="preserve">
<path style="fill:#F4BE8E;" d="M405.317,287.995c0-13.999-5.578-27.397-15.219-37.288c5.141-12.827,5.141-27.327-0.203-40.264
	c-5.375-12.938-15.625-23.188-28.344-28.625c-0.156-13.812-5.687-27.218-15.593-37.123c-9.937-9.938-23.093-15.469-37.124-15.609
	c-5.438-12.703-15.687-22.968-28.624-28.327c-6.515-2.688-13.374-4.062-20.374-4.062c-6.844,0-13.593,1.312-19.906,3.859
	c-9.882-9.656-23.273-15.219-37.272-15.219c-14.007,0-27.39,5.562-37.28,15.219c-6.305-2.547-13.055-3.859-19.898-3.859
	c-7.008,0-13.859,1.359-20.375,4.062c-12.945,5.359-23.179,15.624-28.624,28.327c-14.031,0.141-27.194,5.672-37.124,15.609
	c-9.906,9.905-15.437,23.312-15.601,37.123c-12.71,5.438-22.976,15.688-28.335,28.625s-5.344,27.437-0.203,40.264
	C5.562,260.598,0,273.996,0,287.995c0,14,5.562,27.406,15.218,37.28c-5.133,12.844-5.156,27.343,0.203,40.28
	s15.632,23.187,28.335,28.624c0.164,13.812,5.695,27.218,15.601,37.124c9.93,9.937,23.093,15.468,37.124,15.593
	c5.445,12.719,15.687,22.969,28.624,28.343c6.516,2.688,13.367,4.062,20.375,4.062c6.843,0,13.593-1.312,19.898-3.875
	c9.89,9.656,23.272,15.219,37.28,15.219c14,0,27.39-5.562,37.272-15.219c6.312,2.562,13.062,3.875,19.906,3.875
	c7,0,13.859-1.375,20.374-4.062c12.938-5.374,23.187-15.624,28.624-28.343c14.031-0.125,27.188-5.656,37.124-15.593
	c9.906-9.906,15.437-23.312,15.593-37.124c12.719-5.438,22.969-15.688,28.344-28.624c5.344-12.938,5.344-27.437,0.203-40.28
	C399.739,315.401,405.317,301.995,405.317,287.995z"/>
<path style="fill:#EAAD7A;" d="M362.645,287.995c0,88.372-71.622,159.995-159.987,159.995c-88.364,0-159.995-71.623-159.995-159.995
	c0-88.364,71.631-159.987,159.995-159.987C291.023,128.009,362.645,199.632,362.645,287.995z"/>
<g>
	<path style="fill:#D89766;" d="M131.114,152.461c-4.164,4.156-4.164,10.922,0,15.078c4.172,4.172,10.921,4.172,15.085,0
		c4.164-4.156,4.164-10.922,0-15.078C142.035,148.289,135.286,148.289,131.114,152.461z"/>
	<path style="fill:#D89766;" d="M195.112,152.461c-4.164,4.156-4.164,10.922,0,15.078c4.164,4.172,10.921,4.172,15.085,0
		c4.164-4.156,4.164-10.922,0-15.078C206.034,148.289,199.276,148.289,195.112,152.461z"/>
	<path style="fill:#D89766;" d="M259.11,152.461c-4.164,4.156-4.164,10.922,0,15.078c4.164,4.172,10.922,4.172,15.086,0
		c4.172-4.156,4.172-10.922,0-15.078C270.032,148.289,263.274,148.289,259.11,152.461z"/>
	<path style="fill:#D89766;" d="M99.115,216.459c-4.164,4.156-4.164,10.922,0,15.078c4.172,4.172,10.921,4.172,15.085,0
		c4.164-4.156,4.164-10.922,0-15.078C110.036,212.287,103.287,212.287,99.115,216.459z"/>
	<path style="fill:#D89766;" d="M163.113,216.459c-4.164,4.156-4.164,10.922,0,15.078c4.164,4.172,10.921,4.172,15.085,0
		c4.164-4.156,4.164-10.922,0-15.078C174.035,212.287,167.277,212.287,163.113,216.459z"/>
	<path style="fill:#D89766;" d="M227.111,216.459c-4.164,4.156-4.164,10.922,0,15.078c4.164,4.172,10.921,4.172,15.085,0
		c4.164-4.156,4.164-10.922,0-15.078C238.033,212.287,231.275,212.287,227.111,216.459z"/>
	<path style="fill:#D89766;" d="M291.117,216.459c-4.172,4.156-4.172,10.922,0,15.078c4.156,4.172,10.905,4.172,15.077,0
		c4.172-4.156,4.172-10.922,0-15.078C302.022,212.287,295.273,212.287,291.117,216.459z"/>
	<path style="fill:#D89766;" d="M67.124,280.464c-4.172,4.156-4.172,10.906,0,15.062c4.164,4.188,10.914,4.188,15.078,0
		c4.164-4.156,4.164-10.906,0-15.062C78.037,276.276,71.288,276.276,67.124,280.464z"/>
	<path style="fill:#D89766;" d="M131.114,280.464c-4.164,4.156-4.164,10.906,0,15.062c4.172,4.188,10.921,4.188,15.085,0
		c4.164-4.156,4.164-10.906,0-15.062C142.035,276.276,135.286,276.276,131.114,280.464z"/>
	<path style="fill:#D89766;" d="M195.112,280.464c-4.164,4.156-4.164,10.906,0,15.062c4.164,4.188,10.921,4.188,15.085,0
		c4.164-4.156,4.164-10.906,0-15.062C206.034,276.276,199.276,276.276,195.112,280.464z"/>
	<path style="fill:#D89766;" d="M259.11,280.464c-4.164,4.156-4.164,10.906,0,15.062c4.164,4.188,10.922,4.188,15.086,0
		c4.172-4.156,4.172-10.906,0-15.062C270.032,276.276,263.274,276.276,259.11,280.464z"/>
	<path style="fill:#D89766;" d="M323.116,280.464c-4.172,4.156-4.172,10.906,0,15.062c4.156,4.188,10.906,4.188,15.078,0
		c4.172-4.156,4.172-10.906,0-15.062C334.022,276.276,327.272,276.276,323.116,280.464z"/>
	<path style="fill:#D89766;" d="M99.115,344.462c-4.164,4.156-4.164,10.906,0,15.062c4.172,4.188,10.921,4.188,15.085,0
		c4.164-4.156,4.164-10.906,0-15.062C110.036,340.275,103.287,340.275,99.115,344.462z"/>
	<path style="fill:#D89766;" d="M163.113,344.462c-4.164,4.156-4.164,10.906,0,15.062c4.164,4.188,10.921,4.188,15.085,0
		c4.164-4.156,4.164-10.906,0-15.062C174.035,340.275,167.277,340.275,163.113,344.462z"/>
	<path style="fill:#D89766;" d="M227.111,344.462c-4.164,4.156-4.164,10.906,0,15.062c4.164,4.188,10.921,4.188,15.085,0
		c4.164-4.156,4.164-10.906,0-15.062C238.033,340.275,231.275,340.275,227.111,344.462z"/>
	<path style="fill:#D89766;" d="M291.117,344.462c-4.172,4.156-4.172,10.906,0,15.062c4.156,4.188,10.905,4.188,15.077,0
		c4.172-4.156,4.172-10.906,0-15.062C302.022,340.275,295.273,340.275,291.117,344.462z"/>
	<path style="fill:#D89766;" d="M131.114,408.46c-4.164,4.156-4.164,10.906,0,15.062c4.172,4.188,10.921,4.188,15.085,0
		c4.164-4.156,4.164-10.906,0-15.062C142.035,404.273,135.286,404.273,131.114,408.46z"/>
	<path style="fill:#D89766;" d="M195.112,408.46c-4.164,4.156-4.164,10.906,0,15.062c4.164,4.188,10.921,4.188,15.085,0
		c4.164-4.156,4.164-10.906,0-15.062C206.034,404.273,199.276,404.273,195.112,408.46z"/>
	<path style="fill:#D89766;" d="M259.11,408.46c-4.164,4.156-4.164,10.906,0,15.062c4.164,4.188,10.922,4.188,15.086,0
		c4.172-4.156,4.172-10.906,0-15.062C270.032,404.273,263.274,404.273,259.11,408.46z"/>
</g>
<path style="fill:#FFD2A6;" d="M511.985,224.006c0-14.015-5.562-27.405-15.219-37.296c5.125-12.827,5.156-27.327-0.219-40.264
	c-5.344-12.938-15.624-23.188-28.326-28.625c-0.172-13.812-5.703-27.218-15.594-37.123c-9.938-9.938-23.109-15.469-37.14-15.609
	c-5.438-12.703-15.671-22.968-28.608-28.327c-6.516-2.688-13.375-4.062-20.391-4.062c-6.843,0-13.577,1.312-19.89,3.859
	c-9.89-9.656-23.265-15.219-37.28-15.219c-13.999,0-27.39,5.562-37.264,15.219c-6.32-2.547-13.07-3.859-19.914-3.859
	c-7.007,0-13.859,1.375-20.374,4.062c-12.938,5.359-23.179,15.624-28.617,28.327c-14.031,0.141-27.202,5.672-37.131,15.609
	c-9.906,9.905-15.437,23.312-15.601,37.123c-12.703,5.438-22.968,15.688-28.328,28.625c-5.359,12.937-5.343,27.437-0.211,40.264
	c-9.648,9.891-15.218,23.281-15.218,37.296c0,14,5.57,27.39,15.218,37.28c-5.132,12.836-5.148,27.335,0.211,40.272
	c5.359,12.938,15.625,23.187,28.328,28.624c0.172,13.812,5.703,27.218,15.601,37.124c9.929,9.937,23.101,15.468,37.131,15.593
	c5.438,12.719,15.679,22.969,28.617,28.343c6.515,2.688,13.367,4.062,20.374,4.062c6.844,0,13.594-1.312,19.914-3.875
	c9.874,9.656,23.265,15.219,37.264,15.219c14.016,0,27.391-5.562,37.28-15.219c6.297,2.562,13.047,3.875,19.905,3.875
	c7,0,13.859-1.375,20.359-4.062c12.938-5.374,23.187-15.624,28.624-28.343c14.03-0.125,27.202-5.656,37.124-15.593
	c9.906-9.906,15.438-23.312,15.609-37.124c12.702-5.438,22.982-15.687,28.326-28.624c5.375-12.938,5.344-27.437,0.219-40.272
	C506.423,251.395,511.985,238.006,511.985,224.006z"/>
<path style="fill:#F4BE8E;" d="M469.315,224.006c0,88.365-71.639,159.987-159.996,159.987c-88.356,0-159.995-71.622-159.995-159.987
	c0-88.372,71.638-159.995,159.995-159.995C397.677,64.01,469.315,135.634,469.315,224.006z"/>
<g>
	<path style="fill:#EAAD7A;" d="M237.783,88.463c-4.164,4.156-4.164,10.922,0,15.078c4.164,4.172,10.921,4.172,15.085,0
		c4.164-4.156,4.164-10.922,0-15.078C248.704,84.29,241.947,84.29,237.783,88.463z"/>
	<path style="fill:#EAAD7A;" d="M301.772,88.463c-4.156,4.156-4.156,10.922,0,15.078c4.172,4.172,10.938,4.172,15.094,0
		c4.156-4.156,4.156-10.922,0-15.078C312.71,84.29,305.944,84.29,301.772,88.463z"/>
	<path style="fill:#EAAD7A;" d="M365.77,88.463c-4.156,4.156-4.156,10.922,0,15.078c4.172,4.172,10.938,4.172,15.094,0
		c4.156-4.156,4.156-10.922,0-15.078C376.708,84.29,369.942,84.29,365.77,88.463z"/>
	<path style="fill:#EAAD7A;" d="M205.784,152.461c-4.164,4.156-4.164,10.922,0,15.078c4.164,4.172,10.921,4.172,15.085,0
		c4.164-4.156,4.164-10.922,0-15.078C216.705,148.289,209.948,148.289,205.784,152.461z"/>
	<path style="fill:#EAAD7A;" d="M269.782,152.461c-4.164,4.156-4.164,10.922,0,15.078c4.164,4.172,10.929,4.172,15.085,0
		c4.156-4.156,4.156-10.922,0-15.078C280.711,148.289,273.946,148.289,269.782,152.461z"/>
	<path style="fill:#EAAD7A;" d="M333.772,152.461c-4.156,4.156-4.156,10.922,0,15.078c4.172,4.172,10.937,4.172,15.093,0
		c4.156-4.156,4.156-10.922,0-15.078C344.709,148.289,337.944,148.289,333.772,152.461z"/>
	<path style="fill:#EAAD7A;" d="M397.77,152.461c-4.156,4.156-4.156,10.922,0,15.078c4.172,4.172,10.937,4.172,15.093,0
		c4.156-4.156,4.156-10.922,0-15.078C408.707,148.289,401.942,148.289,397.77,152.461z"/>
	<path style="fill:#EAAD7A;" d="M173.785,216.459c-4.164,4.156-4.164,10.922,0,15.078c4.164,4.172,10.921,4.172,15.085,0
		c4.164-4.156,4.164-10.922,0-15.078C184.706,212.287,177.949,212.287,173.785,216.459z"/>
	<path style="fill:#EAAD7A;" d="M237.783,216.459c-4.164,4.156-4.164,10.922,0,15.078c4.164,4.172,10.921,4.172,15.085,0
		c4.164-4.156,4.164-10.922,0-15.078C248.704,212.287,241.947,212.287,237.783,216.459z"/>
	<path style="fill:#EAAD7A;" d="M301.772,216.459c-4.156,4.156-4.156,10.922,0,15.078c4.172,4.172,10.938,4.172,15.094,0
		c4.156-4.156,4.156-10.922,0-15.078C312.71,212.287,305.944,212.287,301.772,216.459z"/>
	<path style="fill:#EAAD7A;" d="M365.77,216.459c-4.156,4.156-4.156,10.922,0,15.078c4.172,4.172,10.938,4.172,15.094,0
		c4.156-4.156,4.156-10.922,0-15.078C376.708,212.287,369.942,212.287,365.77,216.459z"/>
	<path style="fill:#EAAD7A;" d="M429.768,216.459c-4.156,4.156-4.156,10.922,0,15.078c4.172,4.172,10.938,4.172,15.094,0
		c4.156-4.156,4.156-10.922,0-15.078C440.706,212.287,433.94,212.287,429.768,216.459z"/>
	<path style="fill:#EAAD7A;" d="M205.784,280.464c-4.164,4.156-4.164,10.906,0,15.062c4.164,4.188,10.921,4.188,15.085,0
		c4.164-4.156,4.164-10.906,0-15.062C216.705,276.276,209.948,276.276,205.784,280.464z"/>
	<path style="fill:#EAAD7A;" d="M269.782,280.464c-4.164,4.156-4.164,10.906,0,15.062c4.164,4.188,10.929,4.188,15.085,0
		c4.156-4.156,4.156-10.906,0-15.062C280.711,276.276,273.946,276.276,269.782,280.464z"/>
	<path style="fill:#EAAD7A;" d="M333.772,280.464c-4.156,4.156-4.156,10.906,0,15.062c4.172,4.188,10.937,4.188,15.093,0
		c4.156-4.156,4.156-10.906,0-15.062C344.709,276.276,337.944,276.276,333.772,280.464z"/>
	<path style="fill:#EAAD7A;" d="M397.77,280.464c-4.156,4.156-4.156,10.906,0,15.062c4.172,4.188,10.937,4.188,15.093,0
		c4.156-4.156,4.156-10.906,0-15.062C408.707,276.276,401.942,276.276,397.77,280.464z"/>
	<path style="fill:#EAAD7A;" d="M237.783,344.462c-4.164,4.156-4.164,10.906,0,15.062c4.164,4.188,10.921,4.188,15.085,0
		c4.164-4.156,4.164-10.906,0-15.062C248.704,340.275,241.947,340.275,237.783,344.462z"/>
	<path style="fill:#EAAD7A;" d="M301.772,344.462c-4.156,4.156-4.156,10.906,0,15.062c4.172,4.188,10.938,4.188,15.094,0
		c4.156-4.156,4.156-10.906,0-15.062C312.71,340.275,305.944,340.275,301.772,344.462z"/>
	<path style="fill:#EAAD7A;" d="M365.77,344.462c-4.156,4.156-4.156,10.906,0,15.062c4.172,4.188,10.938,4.188,15.094,0
		c4.156-4.156,4.156-10.906,0-15.062C376.708,340.275,369.942,340.275,365.77,344.462z"/>
</g>
</svg>